<svg width="32" height="32" viewBox="0 0 32 32" fill="none" xmlns="http://www.w3.org/2000/svg">
<path d="M14.5 25C15.3284 25 16 24.3284 16 23.5C16 22.6716 15.3284 22 14.5 22C13.6716 22 13 22.6716 13 23.5C13 24.3284 13.6716 25 14.5 25Z" fill="#585866"/>
<path d="M21.5 25C22.3284 25 23 24.3284 23 23.5C23 22.6716 22.3284 22 21.5 22C20.6716 22 20 22.6716 20 23.5C20 24.3284 20.6716 25 21.5 25Z" fill="#585866"/>
<path d="M4 7H8.55L12.2625 18.7548H23.375L28 7" stroke="#585866" stroke-width="1.2" stroke-linecap="round" stroke-linejoin="round"/>
</svg>
