<svg width="20" height="16" viewBox="0 0 20 16" fill="none" xmlns="http://www.w3.org/2000/svg">
<g clip-path="url(#clip0_270_17420)">
<mask id="mask0_270_17420" style="mask-type:luminance" maskUnits="userSpaceOnUse" x="0" y="0" width="20" height="16">
<rect y="0.5" width="20" height="15" fill="white"/>
</mask>
<g mask="url(#mask0_270_17420)">
<path fill-rule="evenodd" clip-rule="evenodd" d="M0 0.5H20V15.5H0V0.5Z" fill="#E31D1C"/>
<path fill-rule="evenodd" clip-rule="evenodd" d="M0 1.75V3H20V1.75H0ZM0 4.25V5.5H20V4.25H0ZM0 8V6.75H20V8H0ZM0 9.25V10.5H20V9.25H0ZM0 13V11.75H20V13H0ZM0 15.5V14.25H20V15.5H0Z" fill="#F7FCFF"/>
<rect y="0.5" width="11.25" height="8.75" fill="#2E42A5"/>
<path fill-rule="evenodd" clip-rule="evenodd" d="M1.3 3.21718L1.9624 2.75577L2.47623 3.12569H2.1853L2.77364 3.64606L2.57492 4.37569H2.26369L1.96148 3.70557L1.70375 4.37569H0.935303L1.52364 4.89606L1.3 5.71719L1.9624 5.25577L2.47623 5.62569H2.1853L2.77364 6.14606L2.57492 6.87569H2.26369L1.96148 6.20557L1.70375 6.87569H0.935303L1.52364 7.39606L1.3 8.21719L1.9624 7.75577L2.60332 8.21719L2.40406 7.39606L2.91877 6.87569H2.68136L3.2124 6.50577L3.72623 6.87569H3.4353L4.02364 7.39606L3.8 8.21719L4.4624 7.75577L5.10332 8.21719L4.90406 7.39606L5.41877 6.87569H5.18136L5.7124 6.50577L6.22623 6.87569H5.9353L6.52364 7.39606L6.3 8.21719L6.9624 7.75577L7.60332 8.21719L7.40406 7.39606L7.91877 6.87569H7.68136L8.2124 6.50577L8.72623 6.87569H8.4353L9.02364 7.39606L8.8 8.21719L9.4624 7.75577L10.1033 8.21719L9.90406 7.39606L10.4188 6.87569H9.76369L9.46148 6.20557L9.20375 6.87569H8.83112L8.65406 6.14606L9.16877 5.62569H8.93136L9.4624 5.25577L10.1033 5.71719L9.90406 4.89606L10.4188 4.37569H9.76369L9.46148 3.70557L9.20375 4.37569H8.83112L8.65406 3.64606L9.16877 3.12569H8.93136L9.4624 2.75577L10.1033 3.21718L9.90406 2.39606L10.4188 1.87569H9.76369L9.46148 1.20557L9.20375 1.87569H8.4353L9.02364 2.39606L8.82492 3.12569H8.51369L8.21148 2.45557L7.95375 3.12569H7.58112L7.40406 2.39606L7.91877 1.87569H7.26369L6.96148 1.20557L6.70375 1.87569H5.9353L6.52364 2.39606L6.32492 3.12569H6.01369L5.71148 2.45557L5.45375 3.12569H5.08112L4.90406 2.39606L5.41877 1.87569H4.76369L4.46148 1.20557L4.20375 1.87569H3.4353L4.02364 2.39606L3.82492 3.12569H3.51369L3.21148 2.45557L2.95375 3.12569H2.58112L2.40406 2.39606L2.91877 1.87569H2.26369L1.96148 1.20557L1.70375 1.87569H0.935303L1.52364 2.39606L1.3 3.21718ZM8.82492 5.62569L9.02364 4.89606L8.4353 4.37569H8.72623L8.2124 4.00577L7.68136 4.37569H7.91877L7.40406 4.89606L7.58112 5.62569H7.95375L8.21148 4.95557L8.51369 5.62569H8.82492ZM7.47623 5.62569L6.9624 5.25577L6.43136 5.62569H6.66877L6.15406 6.14606L6.33112 6.87569H6.70375L6.96148 6.20557L7.26369 6.87569H7.57492L7.77364 6.14606L7.1853 5.62569H7.47623ZM5.27364 6.14606L5.07492 6.87569H4.76369L4.46148 6.20557L4.20375 6.87569H3.83112L3.65406 6.14606L4.16877 5.62569H3.93136L4.4624 5.25577L4.97623 5.62569H4.6853L5.27364 6.14606ZM5.45375 5.62569H5.08112L4.90406 4.89606L5.41877 4.37569H5.18136L5.7124 4.00577L6.22623 4.37569H5.9353L6.52364 4.89606L6.32492 5.62569H6.01369L5.71148 4.95557L5.45375 5.62569ZM3.82492 5.62569L4.02364 4.89606L3.4353 4.37569H3.72623L3.2124 4.00577L2.68136 4.37569H2.91877L2.40406 4.89606L2.58112 5.62569H2.95375L3.21148 4.95557L3.51369 5.62569H3.82492ZM7.77364 3.64606L7.57492 4.37569H7.26369L6.96148 3.70557L6.70375 4.37569H6.33112L6.15406 3.64606L6.66877 3.12569H6.43136L6.9624 2.75577L7.47623 3.12569H7.1853L7.77364 3.64606ZM4.97623 3.12569L4.4624 2.75577L3.93136 3.12569H4.16877L3.65406 3.64606L3.83112 4.37569H4.20375L4.46148 3.70557L4.76369 4.37569H5.07492L5.27364 3.64606L4.6853 3.12569H4.97623Z" fill="#F7FCFF"/>
</g>
<rect y="0.5" width="20" height="15" fill="url(#paint0_linear_270_17420)" style="mix-blend-mode:overlay"/>
</g>
<rect x="0.5" y="1" width="19" height="14" rx="1" stroke="black" stroke-opacity="0.1" style="mix-blend-mode:multiply"/>
<defs>
<linearGradient id="paint0_linear_270_17420" x1="10" y1="0.5" x2="10" y2="15.5" gradientUnits="userSpaceOnUse">
<stop stop-color="white" stop-opacity="0.7"/>
<stop offset="1" stop-opacity="0.3"/>
</linearGradient>
<clipPath id="clip0_270_17420">
<rect y="0.5" width="20" height="15" rx="1.5" fill="white"/>
</clipPath>
</defs>
</svg>
