<svg width="251" height="133" viewBox="0 0 251 133" fill="none" xmlns="http://www.w3.org/2000/svg">
<path d="M109.485 71.053C96.634 68.275 85.457 65.743 84.648 65.427C82.525 64.596 80.557 59.362 81.16 56.148C81.436 54.677 82.535 52.633 83.602 51.605C85.155 50.111 85.395 49.351 84.806 47.801C84.402 46.736 84.07 44.598 84.07 43.049C84.07 41.114 83.692 40.233 82.862 40.233C80.195 40.233 77.83 30.408 79.779 27.423C80.11 26.915 88.953 20.537 99.429 13.2499L118.478 0L142.061 4.2149C155.031 6.5331 165.978 8.7448 166.387 9.1297C166.829 9.5453 166.725 10.319 166.132 11.0336C165.581 11.6976 165.248 13.8141 165.388 15.753C165.624 19 165.85 19.31 168.349 19.818C171.856 20.53 172.356 21.106 171.146 23.043C169.863 25.097 169.867 30.78 171.152 32.838C172.007 34.207 171.829 34.776 169.923 36.766C168.231 38.532 167.693 39.911 167.693 42.484C167.693 44.349 168.067 46.106 168.523 46.388C168.98 46.67 169.072 47.383 168.728 47.973C168.384 48.562 160.917 55.178 152.135 62.675C142.074 71.263 135.554 76.268 134.509 76.205C133.597 76.149 122.336 73.831 109.485 71.053ZM151.151 59.596C164.041 48.535 164.414 48.126 164.414 45.044C164.414 43.3 164.238 41.873 164.022 41.873C163.807 41.873 158.257 46.484 151.69 52.12C145.123 57.757 139.333 62.368 138.824 62.368C136.51 62.368 134.9 65.131 134.9 69.101C134.9 73.959 133.37 74.854 151.151 59.596ZM132.278 67.902L132.03 63.598L111.944 59.348C100.897 57.01 90.659 54.872 89.194 54.597L86.53 54.096V58.584V63.072L90.834 63.966C93.201 64.458 102.701 66.479 111.944 68.457C134.014 73.181 132.584 73.22 132.278 67.902ZM135.719 54.492C135.719 50.62 135.513 49.975 134.411 50.398C133.691 50.674 123.492 48.869 111.746 46.386C100.001 43.904 90.26 41.873 90.1 41.873C89.94 41.873 89.809 43.526 89.809 45.546C89.809 48.868 90.025 49.275 92.064 49.794C95.909 50.772 133.611 58.92 134.695 59.007C135.403 59.064 135.719 57.667 135.719 54.492ZM154.498 45.972L167.574 34.904L167.633 30.527L167.693 26.15L161.749 31.282C158.48 34.104 151.841 39.763 146.996 43.857L138.186 51.301L138.183 55.295C138.18 60.157 136.825 60.93 154.498 45.972ZM129.981 42.436V38.081L107.64 33.411C95.353 30.842 85.023 28.744 84.685 28.748C83.79 28.759 83.93 36.77 84.836 37.33C85.257 37.59 91.805 39.103 99.388 40.692C106.97 42.281 116.31 44.264 120.143 45.098C130.507 47.353 129.981 47.495 129.981 42.436ZM148.053 34.849L161.954 22.906V18.783V14.6592L159.132 16.993C157.579 18.277 151.133 23.754 144.808 29.165L133.306 39.003L133.284 42.897C133.272 45.039 133.462 46.792 133.708 46.792C133.953 46.792 140.408 41.417 148.053 34.849Z" fill="#423836"/>
<path d="M2.896 114.731H9.479C11.03 114.731 12.361 114.175 13.473 113.064C14.584 111.952 15.14 110.613 15.14 109.048C15.14 107.483 14.584 106.152 13.473 105.055C12.361 103.943 11.03 103.387 9.479 103.387H2.896V114.731ZM2.896 129.104H11.344C12.924 129.104 14.277 128.54 15.404 127.414C16.515 126.288 17.071 124.927 17.071 123.333C17.071 121.768 16.515 120.422 15.404 119.295C14.277 118.184 12.924 117.628 11.344 117.628H2.896V129.104ZM0 132V100.491H9.479C11.834 100.491 13.846 101.324 15.513 102.992C17.196 104.674 18.037 106.693 18.037 109.048C18.037 111.667 17.035 113.839 15.031 115.565C16.523 116.267 17.715 117.306 18.607 118.681C19.514 120.1 19.968 121.651 19.968 123.333C19.968 125.732 19.127 127.772 17.444 129.455C15.747 131.152 13.714 132 11.344 132H0Z" fill="#423836"/>
<path d="M37.171 103.102C33.543 103.102 30.442 104.389 27.867 106.964C25.292 109.538 24.005 112.639 24.005 116.267C24.005 119.895 25.292 122.996 27.867 125.571C30.442 128.146 33.543 129.433 37.171 129.433C40.798 129.433 43.9 128.146 46.474 125.571C49.049 122.996 50.336 119.895 50.336 116.267C50.336 112.639 49.049 109.538 46.474 106.964C43.9 104.389 40.798 103.102 37.171 103.102ZM37.171 132.329C32.738 132.329 28.957 130.757 25.826 127.612C22.681 124.481 21.109 120.7 21.109 116.267C21.109 111.835 22.681 108.046 25.826 104.901C28.957 101.771 32.738 100.205 37.171 100.205C41.603 100.205 45.392 101.771 48.537 104.901C51.667 108.046 53.233 111.835 53.233 116.267C53.233 120.7 51.667 124.481 48.537 127.612C45.392 130.757 41.603 132.329 37.171 132.329Z" fill="#423836"/>
<path d="M70.392 103.102C66.764 103.102 63.663 104.389 61.088 106.964C58.513 109.538 57.226 112.639 57.226 116.267C57.226 119.895 58.513 122.996 61.088 125.571C63.663 128.146 66.764 129.433 70.392 129.433C74.019 129.433 77.121 128.146 79.695 125.571C82.27 122.996 83.557 119.895 83.557 116.267C83.557 112.639 82.27 109.538 79.695 106.964C77.121 104.389 74.019 103.102 70.392 103.102ZM70.392 132.329C65.959 132.329 62.178 130.757 59.047 127.612C55.902 124.481 54.33 120.7 54.33 116.267C54.33 111.835 55.902 108.046 59.047 104.901C62.178 101.771 65.959 100.205 70.392 100.205C74.824 100.205 78.613 101.771 81.758 104.901C84.888 108.046 86.454 111.835 86.454 116.267C86.454 120.7 84.888 124.481 81.758 127.612C78.613 130.757 74.824 132.329 70.392 132.329Z" fill="#423836"/>
<path d="M105.346 100.491L91.939 117.189V100.513H89.043V131.978H91.939V121.797L94.594 118.483L105.741 132H109.471L96.459 116.18L109.054 100.491H105.346Z" fill="#423836"/>
<path d="M129.614 100.491L109.691 132H113.114L118.095 124.123H130.602V132H133.476V100.491H129.614ZM130.602 104.353V121.226H119.916L130.602 104.353Z" fill="#423836"/>
<path d="M137.382 100.491V132H140.279V117.65H150.701V114.753H140.279V103.387H153.466V100.491H137.382Z" fill="#423836"/>
<path d="M156.033 100.491V132H158.93V117.65H169.352V114.753H158.93V103.387H172.117V100.491H156.033Z" fill="#423836"/>
<path d="M173.587 132H176.506V100.337H173.587V132Z" fill="#423836"/>
<path d="M198.338 100.491V126.756L182.65 100.491H179.512V132H182.408V105.735L198.119 132H201.235V100.491H198.338Z" fill="#423836"/>
<path d="M204.043 132H206.962V100.337H204.043V132Z" fill="#423836"/>
<path d="M208.432 100.491V103.387H216.704V132H219.601V103.387H227.851V100.491H208.432Z" fill="#423836"/>
<path d="M247.468 100.491L239.678 113.7L231.91 100.491H228.553L238.23 116.926V132H241.126V116.926L250.803 100.491H247.468Z" fill="#423836"/>
</svg>
