<svg width="101" height="107" viewBox="0 0 101 107" fill="none" xmlns="http://www.w3.org/2000/svg">
<mask id="mask0_81_13" style="mask-type:luminance" maskUnits="userSpaceOnUse" x="0" y="0" width="101" height="107">
<path d="M101 0H0V106.443H101V0Z" fill="white"/>
</mask>
<g mask="url(#mask0_81_13)">
<path d="M0.972988 105.211C0.0938883 103.853 -0.311614 6.93493 0.547886 3.61003L1.22619 0.985832L9.35719 0.75703C15.8059 0.57553 17.7436 0.78353 18.7227 1.76263C19.4017 2.44163 20.488 2.79353 21.1366 2.54463C21.7853 2.29573 25.4504 1.62863 29.2814 1.06223C34.5038 0.290029 36.5604 0.261731 37.5004 0.949032C39.1029 2.12083 53.4171 100.967 52.2901 103.074C51.8051 103.98 49.634 104.692 45.4715 105.311C36.3957 106.661 34.6898 106.529 33.781 104.405C33.3539 103.407 30.289 83.219 26.97 59.542C23.651 35.8655 20.7424 16.3005 20.5063 16.0644C20.2702 15.8284 20.0771 35.5812 20.0771 59.96C20.0771 93.359 19.8386 104.523 19.1094 105.252C17.7445 106.617 1.85959 106.581 0.972988 105.211ZM44.1213 103.625L50.9121 102.643L50.4831 97.916C50.2481 95.317 49.8537 92.989 49.6079 92.743C49.3622 92.497 45.6924 92.754 41.4528 93.316C35.0236 94.167 33.8036 94.553 34.1005 95.641C34.2964 96.359 34.6906 98.67 34.9768 100.776C35.2631 102.883 35.9098 104.607 36.414 104.607C36.9181 104.607 40.3865 104.165 44.1213 103.625ZM17.6579 98.962V94.124H9.99719H2.33649V98.962V103.8H9.99719H17.6579V98.962ZM42.2527 91.264C48.5577 90.48 49.1083 90.203 49.0947 87.82C49.0718 83.943 48.3916 83.614 42.2217 84.504C33.1927 85.806 32.9793 85.887 32.9793 88.025C32.9793 91.517 33.8154 92.628 36.1054 92.18C37.2689 91.952 40.0351 91.54 42.2527 91.264ZM17.6579 88.479V85.253H9.99719H2.33649V88.479V91.704H9.99719H17.6579V88.479ZM41.6628 82.711C47.1294 81.947 48.2645 81.547 47.9648 80.492C47.7636 79.784 45.8839 66.686 43.7874 51.3851C41.691 36.0839 39.8782 23.4386 39.7589 23.2846C39.5646 23.0335 24.7763 24.8146 24.3272 25.1432C24.2255 25.2177 25.9492 38.132 28.1576 53.842C30.366 69.552 32.1729 82.683 32.1729 83.023C32.1729 83.859 33.8366 83.804 41.6628 82.711ZM35.5961 75.452C34.2334 74.089 34.3267 70.35 35.7529 69.166C39.1112 66.379 44.6915 70.784 42.3323 74.36C41.0852 76.25 37.0486 76.904 35.5961 75.452ZM40.1145 74.056C41.7467 73.022 40.8804 70.372 38.8137 70.077C36.6467 69.768 35.5829 71.84 37.0197 73.571C38.1601 74.945 38.6027 75.015 40.1145 74.056ZM17.6579 53.401V23.9679H9.99719H2.33649V53.401V82.834H9.99719H17.6579V53.401ZM6.89659 74.908C5.16209 72.992 5.20689 71.31 7.03679 69.654C10.8233 66.227 15.872 69.76 13.7727 74.367C12.6491 76.833 8.90529 77.128 6.89659 74.908ZM11.9284 73.663C13.1754 72.16 12.1961 69.932 10.2888 69.932C8.55659 69.932 7.56519 71.717 8.27289 73.561C8.85309 75.073 10.7151 75.125 11.9284 73.663ZM34.0384 21.8578L39.5327 21.3155L38.9862 18.005C38.6856 16.1842 38.3905 14.6409 38.3302 14.5754C38.2208 14.4564 30.8621 15.5026 25.9234 16.3394C23.4691 16.7553 23.3026 16.9918 23.3026 20.0622C23.3026 23.3203 23.3186 23.338 25.9234 22.8705C27.3648 22.6117 31.0166 22.156 34.0384 21.8578ZM17.6579 18.3232V15.0976H9.99719H2.33649V18.3232V21.5487H9.99719H17.6579V18.3232ZM31.8345 13.3723L38.0132 12.4533L37.4827 7.94003C37.191 5.45773 36.6934 3.17413 36.3769 2.86543C35.5469 2.05553 22.1979 3.88323 21.5411 4.89663C21.0344 5.67853 21.2002 7.70393 22.1615 12.4769C22.5863 14.5859 23.257 14.648 31.8345 13.3723ZM17.6579 8.24333V3.00183H9.99719H2.33649V8.24333V13.4848H9.99719H17.6579V8.24333ZM57.4201 105.211C56.5411 103.853 56.1351 6.93493 56.9951 3.61003L57.6731 0.985832L65.9731 0.75513C71.4001 0.60433 74.6621 0.847829 75.3981 1.45863C76.9401 2.73813 77.0941 103.714 75.5561 105.252C74.1911 106.617 58.3071 106.581 57.4201 105.211ZM74.1051 98.962V94.124H66.4441H58.7841V98.962V103.8H66.4441H74.1051V98.962ZM74.1051 88.479V85.253H66.4441H58.7841V88.479V91.704H66.4441H74.1051V88.479ZM74.1051 53.401V23.9679H66.4441H58.7841V53.401V82.834H66.4441H74.1051V53.401ZM63.1451 74.367C61.9211 72.5 61.9211 72.203 63.1451 70.335C64.0291 68.986 65.2061 68.319 66.7051 68.319C69.5061 68.319 70.8791 69.646 70.8791 72.351C70.8791 75.056 69.5061 76.383 66.7051 76.383C65.2061 76.383 64.0291 75.716 63.1451 74.367ZM68.4521 73.571C69.8881 71.84 68.8251 69.768 66.6581 70.077C64.5911 70.372 63.7251 73.022 65.3571 74.056C66.8691 75.015 67.3111 74.945 68.4521 73.571ZM74.1051 18.3232V15.0976H66.4441H58.7841V18.3232V21.5487H66.4441H74.1051V18.3232ZM74.1051 8.24333V3.00183H66.4441H58.7841V8.24333V13.4848H66.4441H74.1051V8.24333ZM81.5491 105.277C80.0841 103.812 80.1091 3.92083 81.5751 1.91603C82.4491 0.720831 83.7961 0.555129 91.0161 0.753929C99.2261 0.980029 99.4511 1.03623 99.9961 3.00183C100.726 5.63453 100.726 101.168 99.9961 103.8C99.4501 105.767 99.2301 105.822 90.9891 106.043C85.1071 106.201 82.2411 105.969 81.5491 105.277ZM98.2961 98.962V94.124H90.6361H82.9751V98.962V103.8H90.6361H98.2961V98.962ZM98.2961 88.479V85.253H90.6361H82.9751V88.479V91.704H90.6361H98.2961V88.479ZM98.2961 53.401V23.9679H90.6361H82.9751V53.401V82.834H90.6361H98.2961V53.401ZM87.1681 75.415C86.6361 74.883 86.2011 73.504 86.2011 72.351C86.2011 69.646 87.5741 68.319 90.3751 68.319C91.8741 68.319 93.0511 68.986 93.9361 70.335C95.1591 72.203 95.1591 72.5 93.9361 74.367C92.4961 76.564 88.8771 77.124 87.1681 75.415ZM91.7231 74.056C93.3551 73.022 92.4891 70.372 90.4221 70.077C88.2551 69.768 87.1921 71.84 88.6281 73.571C89.7691 74.945 90.2111 75.015 91.7231 74.056ZM98.2961 18.3232V15.0976H90.6361H82.9751V18.3232V21.5487H90.6361H98.2961V18.3232ZM98.2961 8.24333V3.00183H90.6361H82.9751V8.24333V13.4848H90.6361H98.2961V8.24333Z" fill="#423836"/>
</g>
</svg>
