<svg width="200" height="200" viewBox="0 0 200 200" fill="none" xmlns="http://www.w3.org/2000/svg">
<path d="M78.2007 144.228C60.7967 140.466 45.6601 137.037 44.5639 136.608C41.6887 135.483 39.0237 128.394 39.8401 124.042C40.214 122.049 41.7024 119.281 43.1477 117.89C45.25 115.866 45.5761 114.836 44.7784 112.738C44.23 111.295 43.7813 108.399 43.7813 106.301C43.7813 103.681 43.2691 102.488 42.1444 102.488C38.5329 102.488 35.3306 89.1813 37.9692 85.1386C38.4179 84.4512 50.3938 75.8138 64.5824 65.9444L90.3797 48L122.318 53.7082C139.884 56.8477 154.71 59.8431 155.264 60.3645C155.862 60.9272 155.722 61.975 154.919 62.9429C154.172 63.8422 153.72 66.7085 153.911 69.3344C154.23 73.7319 154.536 74.1523 157.921 74.8393C162.671 75.8032 163.347 76.5833 161.709 79.2068C159.971 81.9889 159.976 89.685 161.717 92.4726C162.875 94.3266 162.634 95.097 160.052 97.7922C157.761 100.184 157.032 102.052 157.032 105.536C157.032 108.062 157.538 110.441 158.156 110.823C158.775 111.206 158.9 112.171 158.434 112.97C157.968 113.768 147.856 122.728 135.962 132.881C122.336 144.512 113.506 151.291 112.091 151.205C110.855 151.129 95.6047 147.99 78.2007 144.228ZM134.629 128.711C152.086 113.731 152.591 113.177 152.591 109.003C152.591 106.641 152.352 104.708 152.061 104.708C151.769 104.708 144.254 110.954 135.359 118.587C126.465 126.22 118.624 132.466 117.934 132.466C114.801 132.466 112.62 136.208 112.62 141.583C112.62 148.164 110.549 149.375 134.629 128.711ZM109.069 139.96L108.734 134.131L81.5314 128.375C66.5701 125.209 52.7052 122.314 50.7205 121.941L47.1121 121.262V127.34V133.419L52.9412 134.629C56.1472 135.295 69.0128 138.032 81.5314 140.712C111.421 147.109 109.484 147.162 109.069 139.96ZM113.73 121.799C113.73 116.554 113.451 115.681 111.958 116.254C110.983 116.628 97.1701 114.183 81.263 110.821C65.3559 107.459 52.1638 104.708 51.9472 104.708C51.7307 104.708 51.5535 106.947 51.5535 109.684C51.5535 114.182 51.8456 114.733 54.6069 115.436C59.8141 116.761 110.874 127.796 112.343 127.913C113.301 127.99 113.73 126.099 113.73 121.799ZM139.162 110.26L156.871 95.2707L156.952 89.343L157.032 83.4153L148.982 90.3652C144.555 94.1876 135.564 101.851 129.002 107.396L117.07 117.477L117.066 122.886C117.062 129.471 115.227 130.518 139.162 110.26ZM105.958 105.472V99.573L75.7025 93.2486C59.0618 89.7702 45.0721 86.9285 44.6141 86.9338C43.4013 86.9481 43.5916 97.7982 44.818 98.5561C45.3881 98.9085 54.2566 100.958 64.5258 103.11C74.795 105.262 87.444 107.947 92.6346 109.076C106.671 112.13 105.958 112.323 105.958 105.472ZM130.434 95.196L149.26 79.0219V73.4374V67.853L145.437 71.014C143.335 72.7526 134.605 80.1707 126.038 87.4986L110.462 100.822L110.432 106.096C110.416 108.997 110.673 111.37 111.006 111.37C111.338 111.37 120.08 104.092 130.434 95.196Z" fill="#423836"/>
</svg>
