<svg width="401" height="104" viewBox="0 0 401 104" fill="none" xmlns="http://www.w3.org/2000/svg">
<path d="M41.201 96.228C23.797 92.466 8.66011 89.037 7.56391 88.608C4.68871 87.483 2.02371 80.394 2.84011 76.042C3.21401 74.049 4.70241 71.281 6.14771 69.89C8.25001 67.866 8.57611 66.836 7.77841 64.738C7.23001 63.295 6.78131 60.399 6.78131 58.301C6.78131 55.681 6.26911 54.488 5.14441 54.488C1.53291 54.488 -1.66939 41.181 0.969208 37.139C1.41791 36.451 13.3938 27.814 27.582 17.944L53.38 0L85.318 5.7082C102.884 8.8477 117.71 11.8431 118.264 12.3645C118.862 12.9272 118.722 13.975 117.919 14.9429C117.172 15.8422 116.72 18.708 116.911 21.334C117.23 25.732 117.536 26.152 120.921 26.839C125.671 27.803 126.347 28.583 124.709 31.207C122.971 33.989 122.976 41.685 124.717 44.473C125.875 46.327 125.634 47.097 123.052 49.792C120.761 52.184 120.032 54.052 120.032 57.536C120.032 60.062 120.538 62.441 121.156 62.823C121.775 63.206 121.9 64.171 121.434 64.97C120.968 65.768 110.856 74.728 98.962 84.881C85.336 96.512 76.506 103.291 75.091 103.205C73.855 103.129 58.605 99.99 41.201 96.228ZM97.629 80.711C115.086 65.731 115.591 65.177 115.591 61.003C115.591 58.641 115.352 56.708 115.061 56.708C114.769 56.708 107.254 62.954 98.359 70.587C89.465 78.22 81.624 84.466 80.934 84.466C77.801 84.466 75.62 88.208 75.62 93.583C75.62 100.164 73.549 101.375 97.629 80.711ZM72.069 91.96L71.734 86.131L44.531 80.375C29.57 77.209 15.7052 74.314 13.7205 73.941L10.1121 73.262V79.34V85.419L15.9412 86.629C19.147 87.295 32.013 90.032 44.531 92.712C74.421 99.109 72.484 99.162 72.069 91.96ZM76.73 73.799C76.73 68.554 76.451 67.681 74.958 68.254C73.983 68.628 60.17 66.183 44.263 62.821C28.356 59.459 15.1638 56.708 14.9472 56.708C14.7307 56.708 14.5535 58.947 14.5535 61.684C14.5535 66.182 14.8456 66.733 17.607 67.436C22.814 68.761 73.874 79.796 75.343 79.913C76.301 79.99 76.73 78.099 76.73 73.799ZM102.162 62.26L119.871 47.271L119.952 41.343L120.032 35.415L111.982 42.365C107.555 46.188 98.564 53.851 92.002 59.396L80.07 69.477L80.066 74.886C80.062 81.471 78.227 82.518 102.162 62.26ZM68.958 57.472V51.573L38.702 45.249C22.062 41.77 8.07211 38.929 7.61411 38.934C6.40131 38.948 6.59161 49.798 7.81801 50.556C8.38811 50.908 17.257 52.958 27.526 55.11C37.795 57.262 50.444 59.947 55.635 61.076C69.671 64.13 68.958 64.323 68.958 57.472ZM93.434 47.196L112.26 31.022V25.437V19.853L108.437 23.014C106.335 24.753 97.605 32.171 89.038 39.499L73.462 52.822L73.432 58.096C73.416 60.997 73.673 63.37 74.006 63.37C74.338 63.37 83.08 56.092 93.434 47.196Z" fill="#423836"/>
<path d="M152.409 50.0672H158.992C160.543 50.0672 161.874 49.5112 162.986 48.3992C164.098 47.2872 164.653 45.9492 164.653 44.3842C164.653 42.8182 164.098 41.4872 162.986 40.3902C161.874 39.2782 160.543 38.7222 158.992 38.7222H152.409V50.0672ZM152.409 64.4392H160.857C162.437 64.4392 163.79 63.8762 164.917 62.7492C166.028 61.6232 166.584 60.2632 166.584 58.6682C166.584 57.1032 166.028 55.7572 164.917 54.6312C163.79 53.5192 162.437 52.9632 160.857 52.9632H152.409V64.4392ZM149.513 67.3352V35.8262H158.992C161.347 35.8262 163.359 36.6602 165.026 38.3272C166.709 40.0102 167.55 42.0282 167.55 44.3842C167.55 47.0022 166.548 49.1742 164.544 50.9012C166.036 51.6032 167.228 52.6412 168.12 54.0162C169.027 55.4352 169.481 56.9862 169.481 58.6682C169.481 61.0672 168.64 63.1082 166.957 64.7902C165.26 66.4872 163.227 67.3352 160.857 67.3352H149.513Z" fill="#423836"/>
<path d="M186.684 38.437C183.056 38.437 179.955 39.724 177.38 42.299C174.805 44.874 173.518 47.975 173.518 51.603C173.518 55.231 174.805 58.332 177.38 60.906C179.955 63.481 183.056 64.768 186.684 64.768C190.312 64.768 193.413 63.481 195.987 60.906C198.562 58.332 199.849 55.231 199.849 51.603C199.849 47.975 198.562 44.874 195.987 42.299C193.413 39.724 190.312 38.437 186.684 38.437ZM186.684 67.665C182.251 67.665 178.47 66.092 175.339 62.947C172.194 59.817 170.622 56.035 170.622 51.603C170.622 47.17 172.194 43.382 175.339 40.236C178.47 37.106 182.251 35.541 186.684 35.541C191.116 35.541 194.905 37.106 198.05 40.236C201.18 43.382 202.746 47.17 202.746 51.603C202.746 56.035 201.18 59.817 198.05 62.947C194.905 66.092 191.116 67.665 186.684 67.665Z" fill="#423836"/>
<path d="M219.905 38.437C216.277 38.437 213.176 39.724 210.601 42.299C208.026 44.874 206.739 47.975 206.739 51.603C206.739 55.231 208.026 58.332 210.601 60.906C213.176 63.481 216.277 64.768 219.905 64.768C223.532 64.768 226.634 63.481 229.208 60.906C231.783 58.332 233.07 55.231 233.07 51.603C233.07 47.975 231.783 44.874 229.208 42.299C226.634 39.724 223.532 38.437 219.905 38.437ZM219.905 67.665C215.472 67.665 211.691 66.092 208.56 62.947C205.415 59.817 203.843 56.035 203.843 51.603C203.843 47.17 205.415 43.382 208.56 40.236C211.691 37.106 215.472 35.541 219.905 35.541C224.337 35.541 228.126 37.106 231.271 40.236C234.401 43.382 235.967 47.17 235.967 51.603C235.967 56.035 234.401 59.817 231.271 62.947C228.126 66.092 224.337 67.665 219.905 67.665Z" fill="#423836"/>
<path d="M254.859 35.8262L241.452 52.5242V35.8482H238.556V67.3142H241.452V57.1322L244.107 53.8192L255.254 67.3352H258.984L245.972 51.5152L258.567 35.8262H254.859Z" fill="#423836"/>
<path d="M279.128 35.8262L259.204 67.3352H262.627L267.608 59.4582H280.115V67.3352H282.989V35.8262H279.128ZM280.115 39.6882V56.5622H269.429L280.115 39.6882Z" fill="#423836"/>
<path d="M286.895 35.8262V67.3352H289.792V52.9852H300.214V50.0892H289.792V38.7222H302.979V35.8262H286.895Z" fill="#423836"/>
<path d="M305.546 35.8262V67.3352H308.443V52.9852H318.865V50.0892H308.443V38.7222H321.63V35.8262H305.546Z" fill="#423836"/>
<path d="M323.1 67.3349H326.019V35.6719H323.1V67.3349Z" fill="#423836"/>
<path d="M347.851 35.8262V62.0912L332.163 35.8262H329.025V67.3352H331.921V41.0702L347.632 67.3352H350.748V35.8262H347.851Z" fill="#423836"/>
<path d="M353.557 67.3349H356.475V35.6719H353.557V67.3349Z" fill="#423836"/>
<path d="M357.945 35.8262V38.7222H366.217V67.3352H369.114V38.7222H377.364V35.8262H357.945Z" fill="#423836"/>
<path d="M396.981 35.8262L389.191 49.0352L381.424 35.8262H378.066L387.743 52.2612V67.3352H390.639V52.2612L400.316 35.8262H396.981Z" fill="#423836"/>
</svg>
