<svg width="167" height="142" viewBox="0 0 167 142" fill="none" xmlns="http://www.w3.org/2000/svg">
<path d="M54.8191 132.399C31.6624 127.223 11.5226 122.505 10.0641 121.915C6.23851 120.367 2.69262 110.613 3.77887 104.626C4.27636 101.883 6.25674 98.0749 8.17976 96.1611C10.977 93.3763 11.4108 91.9591 10.3495 89.0725C9.6198 87.0871 9.02279 83.1025 9.02279 80.2159C9.02279 76.611 8.34129 74.9696 6.84484 74.9696C2.0396 74.9696 -2.22119 56.661 1.28957 51.0987C1.88658 50.1529 17.821 38.2688 36.6994 24.6895L71.0238 0L113.519 7.85386C136.891 12.1735 156.618 16.2948 157.355 17.0122C158.15 17.7864 157.964 19.2281 156.896 20.5598C155.902 21.7972 155.3 25.7409 155.555 29.3538C155.979 35.4043 156.386 35.9827 160.89 36.928C167.21 38.2542 168.11 39.3275 165.93 42.9372C163.618 46.765 163.624 57.354 165.941 61.1895C167.482 63.7404 167.161 64.8004 163.725 68.5087C160.677 71.7995 159.707 74.3697 159.707 79.1633C159.707 82.6388 160.38 85.912 161.203 86.4376C162.026 86.9646 162.193 88.2923 161.573 89.3917C160.953 90.4896 147.498 102.818 131.673 116.787C113.543 132.79 101.794 142.117 99.9115 141.999C98.2669 141.894 77.9758 137.575 54.8191 132.399ZM129.899 111.05C153.126 90.4387 153.798 89.6765 153.798 83.9335C153.798 80.6837 153.48 78.0241 153.093 78.0241C152.705 78.0241 142.706 86.6179 130.87 97.1201C119.037 107.622 108.604 116.216 107.686 116.216C103.517 116.216 100.615 121.365 100.615 128.76C100.615 137.815 97.8598 139.481 129.899 111.05ZM95.8906 126.527L95.4449 118.507L59.2508 110.587C39.3442 106.231 20.8964 102.248 18.2557 101.735L13.4545 100.801V109.163V117.527L21.2104 119.192C25.4761 120.108 42.5943 123.874 59.2508 127.562C99.02 136.363 96.4427 136.436 95.8906 126.527ZM102.092 101.539C102.092 94.3229 101.721 93.1217 99.7345 93.9101C98.4372 94.4247 80.0586 91.0606 58.8936 86.4349C37.7286 81.8091 20.176 78.0241 19.8878 78.0241C19.5998 78.0241 19.364 81.1047 19.364 84.8705C19.364 91.0592 19.7527 91.8174 23.4267 92.7846C30.355 94.6077 98.2922 109.791 100.247 109.952C101.521 110.058 102.092 107.456 102.092 101.539ZM135.93 85.663L159.493 65.0394L159.601 56.8835L159.707 48.7276L148.996 58.2899C143.106 63.5491 131.143 74.0931 122.412 81.7225L106.536 95.5928L106.531 103.035C106.526 112.095 104.084 113.536 135.93 85.663ZM91.7513 79.0752V70.9589L51.4952 62.2572C29.3541 57.4713 10.7403 53.5614 10.1309 53.5687C8.51719 53.5884 8.77039 68.5169 10.4022 69.5597C11.1607 70.0446 22.9606 72.8645 36.6241 75.8254C50.2877 78.7863 67.1177 82.4806 74.024 84.034C92.7 88.2359 91.7513 88.5015 91.7513 79.0752ZM124.318 64.9366L149.366 42.6828V34.9991V27.3156L144.28 31.6648C141.483 34.0569 129.867 44.2634 118.468 54.3458L97.744 72.6773L97.7041 79.9338C97.6828 83.9253 98.0248 87.1903 98.4678 87.1903C98.9096 87.1903 110.541 77.1765 124.318 64.9366Z" fill="#423836"/>
</svg>
