<svg width="44" height="34" viewBox="0 0 44 34" fill="none" xmlns="http://www.w3.org/2000/svg">
<path d="M23.3705 25.2848H31.7364L28.8216 21.8689V15.5382C28.8219 13.9847 28.2903 12.4779 27.3154 11.2685C26.3404 10.0591 24.9807 9.21987 23.4625 8.89048V8.23594C23.4625 7.84806 23.3085 7.47607 23.0342 7.20179C22.7599 6.92752 22.3879 6.77344 22 6.77344C21.6122 6.77344 21.2402 6.92752 20.9659 7.20179C20.6916 7.47607 20.5375 7.84806 20.5375 8.23594V8.89048C19.0194 9.21987 17.6597 10.0591 16.6847 11.2685C15.7097 12.4779 15.1782 13.9847 15.1784 15.5382V21.8689L12.2637 25.2848H23.3705Z" stroke="#585866" stroke-width="0.872727" stroke-linecap="round" stroke-linejoin="round"/>
<path d="M23.4626 25.7658C23.4626 26.1537 23.3085 26.5257 23.0343 26.8C22.76 27.0743 22.388 27.2283 22.0001 27.2283C21.6122 27.2283 21.2403 27.0743 20.966 26.8C20.6917 26.5257 20.5376 26.1537 20.5376 25.7658C20.5365 25.6011 20.5678 25.4378 20.6297 25.2852H23.3706C23.4324 25.4378 23.4637 25.6011 23.4626 25.7658V25.7658Z" fill="#585866"/>
</svg>
