<svg width="33" height="33" viewBox="0 0 33 33" fill="none" xmlns="http://www.w3.org/2000/svg">
<path d="M17.7343 24.6471H26.1002L23.1854 21.2312V14.9005C23.1857 13.347 22.6541 11.8402 21.6791 10.6308C20.7041 9.42138 19.3445 8.58217 17.8263 8.25279V7.59824C17.8263 7.21036 17.6722 6.83837 17.3979 6.5641C17.1237 6.28983 16.7517 6.13574 16.3638 6.13574C15.9759 6.13574 15.6039 6.28983 15.3297 6.5641C15.0554 6.83837 14.9013 7.21036 14.9013 7.59824V8.25279C13.3831 8.58217 12.0235 9.42138 11.0485 10.6308C10.0735 11.8402 9.54193 13.347 9.54221 14.9005V21.2312L6.62744 24.6471H17.7343Z" stroke="#585866" stroke-width="0.872727" stroke-linecap="round" stroke-linejoin="round"/>
<path d="M17.8264 25.1281C17.8264 25.516 17.6723 25.888 17.398 26.1623C17.1238 26.4366 16.7518 26.5906 16.3639 26.5906C15.976 26.5906 15.604 26.4366 15.3298 26.1623C15.0555 25.888 14.9014 25.516 14.9014 25.1281C14.9003 24.9634 14.9316 24.8001 14.9934 24.6475H17.7343C17.7962 24.8001 17.8275 24.9634 17.8264 25.1281V25.1281Z" fill="#585866"/>
<circle cx="10" cy="11" r="3" fill="#FF0000"/>
</svg>
