<svg width="20" height="15" viewBox="0 0 20 15" fill="none" xmlns="http://www.w3.org/2000/svg">
<path d="M20 12.6923C20 13.3043 19.7659 13.8913 19.3491 14.3241C18.9324 14.7569 18.3671 15 17.7778 15H2.22222C1.63285 15 1.06762 14.7569 0.650874 14.3241C0.234126 13.8913 0 13.3043 0 12.6923V2.30769C0 1.69565 0.234126 1.10868 0.650874 0.675907C1.06762 0.243131 1.63285 0 2.22222 0H17.7778C18.3671 0 18.9324 0.243131 19.3491 0.675907C19.7659 1.10868 20 1.69565 20 2.30769V12.6923Z" fill="#C60A1D"/>
<path d="M0 4.03845H20V10.9615H0V4.03845Z" fill="#FFC400"/>
<path d="M5 6.9231V8.65386C5 9.11289 5.17559 9.55312 5.48816 9.8777C5.80072 10.2023 6.22464 10.3846 6.66667 10.3846C7.10869 10.3846 7.53262 10.2023 7.84518 9.8777C8.15774 9.55312 8.33333 9.11289 8.33333 8.65386V6.9231H5Z" fill="#EA596E"/>
<path d="M6.66669 6.34619H8.33335V8.07696H6.66669V6.34619Z" fill="#F4A2B2"/>
<path d="M5 6.34619H6.66667V8.07696H5V6.34619Z" fill="#DD2E44"/>
<path d="M6.66667 6.34613C7.58714 6.34613 8.33333 5.95868 8.33333 5.48074C8.33333 5.0028 7.58714 4.61536 6.66667 4.61536C5.74619 4.61536 5 5.0028 5 5.48074C5 5.95868 5.74619 6.34613 6.66667 6.34613Z" fill="#EA596E"/>
<path d="M6.66667 5.48074C7.58714 5.48074 8.33333 5.28702 8.33333 5.04805C8.33333 4.80908 7.58714 4.61536 6.66667 4.61536C5.74619 4.61536 5 4.80908 5 5.04805C5 5.28702 5.74619 5.48074 6.66667 5.48074Z" fill="#FFAC33"/>
<path d="M3.88892 6.34619H4.44447V10.3847H3.88892V6.34619ZM8.88892 6.34619H9.44447V10.3847H8.88892V6.34619Z" fill="#99AAB5"/>
<path d="M3.33331 9.80775H4.99998V10.3847H3.33331V9.80775ZM8.33331 9.80775H9.99998V10.3847H8.33331V9.80775ZM3.88887 5.76929H4.44442V6.34621H3.88887V5.76929ZM8.88887 5.76929H9.44442V6.34621H8.88887V5.76929Z" fill="#66757F"/>
</svg>
